<svg width="648" height="427" viewBox="0 0 648 427" fill="none" xmlns="http://www.w3.org/2000/svg">
<g clip-path="url(#clip0_1582_2)">
<rect width="648" height="427" fill="#E44C30"/>
<path opacity="0.36" d="M521.588 97.241L450.738 259.063L660.738 260.385L593.856 97.241H521.588Z" fill="url(#paint0_linear_1582_2)"/>
<path d="M557.868 106.879C563.294 106.879 567.693 102.48 567.693 97.0541C567.693 91.6282 563.294 87.2296 557.868 87.2296C552.442 87.2296 548.043 91.6282 548.043 97.0541C548.043 102.48 552.442 106.879 557.868 106.879Z" fill="white"/>
<path d="M557.865 60.8738C537.932 60.8738 521.778 77.0277 521.778 96.9602H593.951C593.951 77.0277 577.797 60.8738 557.865 60.8738Z" fill="#211F1D"/>
<path d="M559.376 -16.627H556.353V60.8744H559.376V-16.627Z" fill="black"/>
<path d="M379.798 345.515L398.608 335.484C417.278 335.484 429.121 325.591 431.908 307.757C435.391 285.881 441.104 224.157 441.104 223.461C441.522 218.306 446.12 215.101 451.414 216.076H557.864C563.019 217.052 566.92 222.068 566.502 227.083C566.224 230.009 559.954 300.093 556.331 322.665C552.151 348.72 533.481 364.325 506.311 364.325H470.921H381.888C376.733 364.325 371.995 360.145 371.438 354.99C370.881 349.695 374.643 345.515 379.798 345.515Z" fill="#EEEFF0"/>
<path d="M523.168 260.383H456.986C456.01 260.383 455.174 259.547 455.174 258.572C455.174 257.596 456.01 256.76 456.986 256.76H523.168C524.144 256.76 524.98 257.596 524.98 258.572C524.98 259.547 524.144 260.383 523.168 260.383Z" fill="white"/>
<path d="M520.938 282.543H454.756C453.78 282.543 452.944 281.707 452.944 280.731C452.944 279.756 453.78 278.92 454.756 278.92H520.938C521.914 278.92 522.75 279.756 522.75 280.731C522.61 281.707 521.914 282.543 520.938 282.543Z" fill="white"/>
<path d="M518.429 304.552H452.247C451.272 304.552 450.436 303.716 450.436 302.741C450.436 301.765 451.272 300.929 452.247 300.929H518.429C519.405 300.929 520.241 301.765 520.241 302.741C520.241 303.716 519.405 304.552 518.429 304.552Z" fill="white"/>
<path d="M470.921 364.324H506.172C533.342 364.324 552.012 348.719 556.192 322.664C559.815 300.092 566.085 230.147 566.363 227.082C566.781 221.927 563.019 217.05 557.725 216.075C552.57 215.099 547.972 218.443 547.414 223.459C547.414 224.156 540.866 295.912 537.382 317.787C534.596 335.621 522.753 345.514 504.082 345.514H468.831C463.676 345.514 459.914 349.694 460.471 354.849C461.029 360.144 465.766 364.324 470.921 364.324Z" fill="white"/>
<path d="M448.905 380.493H471.616C474.124 380.493 476.075 378.403 476.075 376.035V364.331H444.446V376.035C444.446 378.543 446.397 380.493 448.905 380.493Z" fill="#E2E2E2"/>
<path d="M449.638 456.451H470.956V380.515H449.638V456.451Z" fill="white"/>
<path opacity="0.15" d="M444.446 371.855L476.075 365.863V364.331H444.446V371.855Z" fill="#0F1B3C"/>
<g clip-path="url(#clip1_1582_2)">
<path d="M424.907 288.697L425.882 303.876L385.706 322.661C378.49 326.456 374.979 334.615 377.319 342.395L405.014 442.77L418.861 438.596L406.769 346.19C405.989 340.497 409.889 335.184 415.74 334.236L429.978 332.149L445.19 317.159L427.637 332.528C423.347 336.323 421.201 341.826 421.981 347.328L433.293 440.493L445.775 443.529L451.431 351.692C451.821 345.81 455.917 340.877 461.573 339.169L486.341 331.579C490.242 329.302 492.777 325.128 492.777 320.574L491.802 288.317L424.907 288.697Z" fill="#211F1D"/>
<path d="M494.34 322.473L487.709 197.051C487.709 197.051 460.209 195.533 452.213 195.533C447.727 195.533 440.121 197.62 434.27 199.517C428.615 201.225 423.934 201.035 421.203 206.158L376.151 290.026L403.846 292.493L413.012 282.247L408.331 275.416L425.104 236.897L421.788 306.914L494.34 322.473Z" fill="#211F1D"/>
<path opacity="0.5" d="M424.518 221.527L394.678 273.897L404.04 284.522C404.04 284.522 407.745 285.281 411.451 284.143L413.011 282.246L408.33 275.415L425.103 236.896L424.518 221.527Z" fill="url(#paint1_linear_1582_2)"/>
<path d="M460.209 217.543C469.181 217.543 476.592 210.333 476.592 201.605C476.592 199.897 476.202 198.189 475.812 196.481C467.425 196.102 456.699 195.533 452.213 195.533C450.263 195.533 447.532 195.912 444.802 196.671C444.217 198.189 444.022 199.897 444.022 201.605C443.827 210.333 451.238 217.543 460.209 217.543Z" fill="white"/>
<path d="M491.023 218.872L494.338 323.233L450.066 312.986L491.023 218.872Z" fill="url(#paint2_linear_1582_2)"/>
<path d="M449.484 182.631C450.264 184.149 455.725 204.641 455.725 204.641C455.725 204.641 457.675 208.057 462.356 207.677C467.037 207.298 468.987 201.036 468.987 201.036L460.991 175.231L449.484 182.631Z" fill="#EEBCC5"/>
<path d="M477.957 169.917C477.957 184.148 462.55 199.707 447.922 199.707C433.295 199.707 425.299 183.958 425.299 169.917C425.299 155.686 437.196 144.301 451.628 144.301C466.06 144.301 477.957 155.876 477.957 169.917Z" fill="#EEBCC5"/>
<path d="M480.173 176.593C482.807 160.871 471.843 146.049 455.684 143.486C439.524 140.923 424.289 151.59 421.655 167.312C419.02 183.033 429.985 197.856 446.144 200.419C462.303 202.982 477.539 192.314 480.173 176.593Z" fill="#EEBCC5"/>
<path d="M429.98 193.445C426.469 193.445 422.569 190.599 421.398 186.994C420.618 185.096 420.813 183.199 421.788 182.06C422.569 180.922 423.934 180.353 425.689 180.353C429.2 180.353 433.1 183.199 434.27 186.804C435.05 188.702 434.855 190.599 433.88 191.738C432.905 192.876 431.54 193.445 429.98 193.445ZM425.494 181.302C424.129 181.302 423.154 181.871 422.569 182.63C421.788 183.578 421.788 185.096 422.374 186.804C423.544 190.03 427.054 192.497 429.98 192.497C431.345 192.497 432.32 191.927 432.905 191.168C433.685 190.22 433.685 188.702 433.1 186.994C431.93 183.958 428.614 181.302 425.494 181.302Z" fill="#EFF2F7"/>
<path d="M447.336 193.445C443.826 193.445 439.925 190.599 438.755 186.994C437.975 185.096 438.17 183.199 439.145 182.06C439.925 180.922 441.29 180.353 443.045 180.353C446.556 180.353 450.457 183.199 451.627 186.804C452.407 188.702 452.212 190.599 451.237 191.738C450.457 192.876 449.091 193.445 447.336 193.445ZM443.045 181.302C441.68 181.302 440.705 181.871 440.12 182.63C439.34 183.578 439.34 185.096 439.925 186.804C441.095 190.03 444.606 192.497 447.531 192.497C448.896 192.497 449.872 191.927 450.457 191.168C451.237 190.22 451.237 188.702 450.652 186.994C449.481 183.958 445.971 181.302 443.045 181.302Z" fill="#EFF2F7"/>
<path d="M433.102 188.703C433.492 189.462 433.492 190.411 432.907 190.79C432.322 191.17 431.541 190.79 430.956 189.841C430.371 188.893 430.566 188.134 431.151 187.754C431.736 187.375 432.517 187.754 433.102 188.703Z" fill="#2D2B42"/>
<path d="M446.167 189.272C446.557 190.031 446.557 190.98 445.972 191.359C445.387 191.739 444.607 191.359 444.022 190.411C443.632 189.652 443.632 188.703 444.217 188.323C444.997 188.134 445.777 188.513 446.167 189.272Z" fill="#2D2B42"/>
<path d="M456.502 310.519C455.332 310.139 445.581 305.586 438.755 305.586C431.929 305.586 423.347 312.606 423.347 312.606C423.347 312.606 422.177 316.401 426.858 315.642C431.539 314.883 426.273 318.488 426.273 318.488C426.273 318.488 426.468 318.678 431.929 319.437C437.389 320.196 458.258 319.058 458.258 319.058L456.502 310.519Z" fill="#EEBCC5"/>
<path d="M487.708 197.239L491.413 279.778L456.503 310.327L458.258 318.866L507.406 293.44C512.087 290.973 514.817 285.85 514.037 280.727L505.065 217.542C504.285 209.572 499.41 202.742 492.193 199.136L487.708 197.239Z" fill="#42423E"/>
<path d="M460.016 326.078H371.277V319.817H460.016C461.771 319.817 463.332 321.145 463.332 323.043C463.332 324.75 461.966 326.078 460.016 326.078Z" fill="white"/>
<path d="M435.831 326.078H350.018C346.312 326.078 342.997 323.611 342.022 320.006L326.809 264.6C325.444 259.477 329.345 254.354 334.806 254.354H409.502C413.208 254.354 416.523 256.821 417.498 260.426L435.831 326.078Z" fill="white"/>
<path d="M335.002 254.354C329.541 254.354 325.445 259.477 327.005 264.6L342.218 320.006C342.608 321.714 343.778 323.232 344.948 324.181L396.826 254.354H335.002Z" fill="url(#paint3_linear_1582_2)"/>
<path d="M451.043 143.162C435.83 143.162 423.349 154.357 421.593 168.777C426.664 172.572 433.49 174.09 439.731 173.141C447.142 171.813 453.968 166.88 457.089 160.239C456.894 163.464 456.699 166.69 457.089 169.916C457.674 173.141 459.039 176.177 461.574 178.265C461.77 175.988 461.965 173.711 463.135 171.813C464.305 169.916 466.84 168.588 468.986 169.346C470.546 169.916 471.521 171.434 471.716 173.141C471.911 174.659 471.521 176.367 470.936 177.885C469.961 180.162 468.596 182.439 466.84 184.336C470.351 184.906 474.056 185.285 477.567 184.906C479.517 181.111 480.492 176.936 480.492 172.382C480.687 156.064 467.425 143.162 451.043 143.162Z" fill="#211F1D"/>
<path d="M476.399 176.748C476.399 181.491 472.304 185.476 467.428 185.476C462.552 185.476 458.457 181.491 458.457 176.748C458.457 172.004 462.552 168.019 467.428 168.019C472.499 168.019 476.399 172.004 476.399 176.748Z" fill="#EEBCC5"/>
</g>
<path d="M89.3027 155.001C78.7947 155.001 69.328 152.823 60.9027 148.469C52.4774 144.019 45.8507 137.866 41.0227 130.009C36.2894 122.057 33.9227 113.063 33.9227 103.029C33.9227 92.9938 36.2894 84.0478 41.0227 76.1905C45.8507 68.2385 52.4774 62.0852 60.9027 57.7305C69.328 53.2812 78.7947 51.0565 89.3027 51.0565C98.9587 51.0565 107.573 52.7605 115.147 56.1685C122.72 59.5765 128.968 64.4992 133.891 70.9365L112.733 89.8225C106.579 82.0598 99.3374 78.1785 91.0067 78.1785C84.0014 78.1785 78.3687 80.4505 74.1087 84.9945C69.8487 89.4438 67.7187 95.4552 67.7187 103.029C67.7187 110.602 69.8487 116.661 74.1087 121.205C78.3687 125.654 84.0014 127.879 91.0067 127.879C99.3374 127.879 106.579 123.997 112.733 116.235L133.891 135.121C128.968 141.558 122.72 146.481 115.147 149.889C107.573 153.297 98.9587 155.001 89.3027 155.001ZM218.827 94.0825L216.697 111.975H233.879V133.275H213.999L211.585 152.729H188.865L191.279 133.275H177.221L174.807 152.729H152.087L154.501 133.275H137.319V111.975H157.199L159.329 94.0825H142.147V72.7825H162.027L164.441 53.3285H187.161L184.747 72.7825H198.805L201.219 53.3285H223.939L221.525 72.7825H238.707V94.0825H218.827ZM196.107 94.0825H182.049L179.919 111.975H193.977L196.107 94.0825Z" fill="white"/>
<path d="M42.54 172.29C43.98 172.29 45.3 172.64 46.5 173.34C47.72 174.02 48.68 175.01 49.38 176.31C50.1 177.61 50.46 179.11 50.46 180.81C50.46 182.51 50.1 184.01 49.38 185.31C48.68 186.59 47.72 187.58 46.5 188.28C45.3 188.96 43.98 189.3 42.54 189.3C40.72 189.3 39.33 188.83 38.37 187.89V194.82H31.59V172.59H38.04V173.94C39.02 172.84 40.52 172.29 42.54 172.29ZM40.92 184.02C41.7 184.02 42.34 183.74 42.84 183.18C43.34 182.62 43.59 181.83 43.59 180.81C43.59 179.79 43.34 179 42.84 178.44C42.34 177.86 41.7 177.57 40.92 177.57C40.14 177.57 39.5 177.86 39 178.44C38.5 179 38.25 179.79 38.25 180.81C38.25 181.83 38.5 182.62 39 183.18C39.5 183.74 40.14 184.02 40.92 184.02ZM59.2343 172.29C62.1143 172.29 64.3143 172.94 65.8343 174.24C67.3543 175.52 68.1143 177.5 68.1143 180.18V189H61.8143V186.84C61.0343 188.48 59.4843 189.3 57.1643 189.3C55.8643 189.3 54.7543 189.08 53.8343 188.64C52.9343 188.18 52.2443 187.57 51.7643 186.81C51.3043 186.03 51.0743 185.16 51.0743 184.2C51.0743 182.58 51.6943 181.35 52.9343 180.51C54.1743 179.67 56.0543 179.25 58.5743 179.25H61.3043C61.0843 177.97 60.0543 177.33 58.2143 177.33C57.4743 177.33 56.7243 177.45 55.9643 177.69C55.2043 177.91 54.5543 178.22 54.0143 178.62L51.8543 174.15C52.7943 173.57 53.9243 173.12 55.2443 172.8C56.5843 172.46 57.9143 172.29 59.2343 172.29ZM59.2043 185.22C59.6843 185.22 60.1143 185.09 60.4943 184.83C60.8743 184.57 61.1543 184.18 61.3343 183.66V182.52H59.6543C58.2743 182.52 57.5843 182.98 57.5843 183.9C57.5843 184.28 57.7243 184.6 58.0043 184.86C58.3043 185.1 58.7043 185.22 59.2043 185.22ZM83.4171 180.48C84.2971 180.8 84.9771 181.27 85.4571 181.89C85.9571 182.49 86.2071 183.2 86.2071 184.02C86.2071 185.16 85.8071 186.14 85.0071 186.96C84.2071 187.76 83.1271 188.37 81.7671 188.79C80.4071 189.19 78.8971 189.39 77.2371 189.39C74.4171 189.39 71.8571 188.97 69.5571 188.13L71.2671 183.66C72.9671 184.28 74.8971 184.59 77.0571 184.59C77.7771 184.59 78.3471 184.5 78.7671 184.32C79.1871 184.14 79.3971 183.86 79.3971 183.48C79.3971 183.16 79.2971 182.94 79.0971 182.82C78.9171 182.68 78.5971 182.61 78.1371 182.61H74.3871V178.83H77.5071C78.0071 178.83 78.3671 178.76 78.5871 178.62C78.8271 178.48 78.9471 178.25 78.9471 177.93C78.9471 177.61 78.7871 177.37 78.4671 177.21C78.1471 177.05 77.5971 176.97 76.8171 176.97C75.3171 176.97 73.5671 177.31 71.5671 177.99L70.0371 173.7C72.5771 172.72 75.0071 172.23 77.3271 172.23C79.7871 172.23 81.8071 172.64 83.3871 173.46C84.9671 174.26 85.7571 175.43 85.7571 176.97C85.7571 177.69 85.5471 178.36 85.1271 178.98C84.7071 179.6 84.1371 180.1 83.4171 180.48ZM99.3173 172.29C100.757 172.29 102.077 172.64 103.277 173.34C104.497 174.02 105.457 175.01 106.157 176.31C106.877 177.61 107.237 179.11 107.237 180.81C107.237 182.51 106.877 184.01 106.157 185.31C105.457 186.59 104.497 187.58 103.277 188.28C102.077 188.96 100.757 189.3 99.3173 189.3C97.4973 189.3 96.1073 188.83 95.1473 187.89V194.82H88.3673V172.59H94.8173V173.94C95.7973 172.84 97.2973 172.29 99.3173 172.29ZM97.6973 184.02C98.4773 184.02 99.1173 183.74 99.6173 183.18C100.117 182.62 100.367 181.83 100.367 180.81C100.367 179.79 100.117 179 99.6173 178.44C99.1173 177.86 98.4773 177.57 97.6973 177.57C96.9173 177.57 96.2773 177.86 95.7773 178.44C95.2773 179 95.0273 179.79 95.0273 180.81C95.0273 181.83 95.2773 182.62 95.7773 183.18C96.2773 183.74 96.9173 184.02 97.6973 184.02ZM116.012 172.29C118.892 172.29 121.092 172.94 122.612 174.24C124.132 175.52 124.892 177.5 124.892 180.18V189H118.592V186.84C117.812 188.48 116.262 189.3 113.942 189.3C112.642 189.3 111.532 189.08 110.612 188.64C109.712 188.18 109.022 187.57 108.542 186.81C108.082 186.03 107.852 185.16 107.852 184.2C107.852 182.58 108.472 181.35 109.712 180.51C110.952 179.67 112.832 179.25 115.352 179.25H118.082C117.862 177.97 116.832 177.33 114.992 177.33C114.252 177.33 113.502 177.45 112.742 177.69C111.982 177.91 111.332 178.22 110.792 178.62L108.632 174.15C109.572 173.57 110.702 173.12 112.022 172.8C113.362 172.46 114.692 172.29 116.012 172.29ZM115.982 185.22C116.462 185.22 116.892 185.09 117.272 184.83C117.652 184.57 117.932 184.18 118.112 183.66V182.52H116.432C115.052 182.52 114.362 182.98 114.362 183.9C114.362 184.28 114.502 184.6 114.782 184.86C115.082 185.1 115.482 185.22 115.982 185.22ZM138.484 174.42C140.904 174.42 142.784 175.07 144.124 176.37C145.464 177.67 146.134 179.46 146.134 181.74C146.134 183.28 145.714 184.64 144.874 185.82C144.054 186.98 142.924 187.88 141.484 188.52C140.044 189.16 138.434 189.48 136.654 189.48C133.734 189.48 131.374 188.61 129.574 186.87C127.794 185.13 126.904 182.45 126.904 178.83C126.904 172.01 129.944 168.05 136.024 166.95L144.184 165.48L145.084 171.03L138.184 172.26C136.564 172.54 135.394 172.97 134.674 173.55C133.974 174.13 133.544 174.98 133.384 176.1C134.784 174.98 136.484 174.42 138.484 174.42ZM136.654 184.47C137.474 184.47 138.104 184.2 138.544 183.66C139.004 183.12 139.234 182.47 139.234 181.71C139.234 180.87 138.994 180.22 138.514 179.76C138.054 179.3 137.434 179.07 136.654 179.07C135.854 179.07 135.214 179.31 134.734 179.79C134.254 180.25 134.014 180.9 134.014 181.74C134.014 182.54 134.254 183.2 134.734 183.72C135.234 184.22 135.874 184.47 136.654 184.47ZM156.681 189.3C154.861 189.3 153.221 188.94 151.761 188.22C150.321 187.48 149.191 186.47 148.371 185.19C147.551 183.89 147.141 182.42 147.141 180.78C147.141 179.14 147.551 177.68 148.371 176.4C149.191 175.1 150.321 174.09 151.761 173.37C153.221 172.65 154.861 172.29 156.681 172.29C158.521 172.29 160.161 172.65 161.601 173.37C163.061 174.09 164.191 175.1 164.991 176.4C165.811 177.68 166.221 179.14 166.221 180.78C166.221 182.42 165.811 183.89 164.991 185.19C164.191 186.47 163.061 187.48 161.601 188.22C160.161 188.94 158.521 189.3 156.681 189.3ZM156.681 184.02C157.461 184.02 158.101 183.74 158.601 183.18C159.101 182.6 159.351 181.8 159.351 180.78C159.351 179.76 159.101 178.97 158.601 178.41C158.101 177.85 157.461 177.57 156.681 177.57C155.901 177.57 155.261 177.85 154.761 178.41C154.261 178.97 154.011 179.76 154.011 180.78C154.011 181.8 154.261 182.6 154.761 183.18C155.261 183.74 155.901 184.02 156.681 184.02ZM183.273 177.87H178.263V189H171.513V177.87H166.503V172.59H183.273V177.87ZM201.903 172.59V189H195.153V183.45C194.193 184.01 192.933 184.29 191.373 184.29C188.993 184.29 187.223 183.76 186.063 182.7C184.903 181.62 184.323 179.92 184.323 177.6V172.59H191.073V177.15C191.073 177.97 191.223 178.54 191.523 178.86C191.843 179.18 192.333 179.34 192.993 179.34C193.793 179.34 194.513 179.19 195.153 178.89V172.59H201.903ZM205.086 172.59H211.836V180L217.506 172.59H223.746V189H216.996V181.56L211.356 189H205.086V172.59ZM234.982 183.54H233.692V189H226.912V172.59H233.692V178.35H235.162L238.762 172.59H245.902L240.622 180.45L246.232 189H238.252L234.982 183.54Z" fill="white"/>
</g>
<defs>
<linearGradient id="paint0_linear_1582_2" x1="555.777" y1="97.2373" x2="555.777" y2="260.362" gradientUnits="userSpaceOnUse">
<stop stop-color="white"/>
<stop offset="0.8606" stop-color="#FAFAFA" stop-opacity="0"/>
</linearGradient>
<linearGradient id="paint1_linear_1582_2" x1="394.699" y1="253.204" x2="425.095" y2="253.204" gradientUnits="userSpaceOnUse">
<stop stop-color="#EAD18C" stop-opacity="0"/>
<stop offset="1" stop-color="#524F63" stop-opacity="0.7"/>
</linearGradient>
<linearGradient id="paint2_linear_1582_2" x1="404.268" y1="305.063" x2="569.849" y2="237.745" gradientUnits="userSpaceOnUse">
<stop stop-color="#373533"/>
<stop offset="1" stop-color="#2E2827"/>
</linearGradient>
<linearGradient id="paint3_linear_1582_2" x1="396.761" y1="289.93" x2="248.795" y2="286.337" gradientUnits="userSpaceOnUse">
<stop stop-color="#484EC2" stop-opacity="0"/>
<stop offset="1" stop-color="#444BCC" stop-opacity="0.5"/>
</linearGradient>
<clipPath id="clip0_1582_2">
<rect width="648" height="427" fill="white"/>
</clipPath>
<clipPath id="clip1_1582_2">
<rect width="187.619" height="352.358" fill="white" transform="translate(326.535 143.152)"/>
</clipPath>
</defs>
</svg>
