<svg width="648" height="427" viewBox="0 0 648 427" fill="none" xmlns="http://www.w3.org/2000/svg">
<g clip-path="url(#clip0_1495_2206)">
<rect width="648" height="427" fill="white"/>
<g clip-path="url(#clip1_1495_2206)">
<rect width="648" height="427" fill="white"/>
<rect width="648" height="427" fill="#FFE307"/>
<path d="M47.826 92.424C42.9607 92.424 38.57 91.6527 34.654 90.11C30.738 88.508 27.4747 86.194 24.864 83.168L36.167 69.818C37.8283 71.8353 39.46 73.378 41.062 74.446C42.664 75.4547 44.3253 75.959 46.046 75.959C50.5553 75.959 52.81 73.378 52.81 68.216V44.542H31.628V28.7H73.547V66.97C73.547 75.514 71.3517 81.8923 66.961 86.105C62.5703 90.3177 56.192 92.424 47.826 92.424ZM112.014 91V82.367L110.59 80.053V63.677C110.59 61.3037 109.849 59.494 108.365 58.248C106.941 57.002 104.598 56.379 101.334 56.379C99.1391 56.379 96.9141 56.735 94.6595 57.447C92.4048 58.0997 90.4765 59.0193 88.8745 60.206L82.4665 46.945C85.3145 45.165 88.7261 43.8003 92.7015 42.851C96.6768 41.9017 100.563 41.427 104.36 41.427C112.726 41.427 119.194 43.296 123.762 47.034C128.39 50.772 130.704 56.7053 130.704 64.834V91H112.014ZM98.2195 91.89C94.2441 91.89 90.9215 91.2077 88.2515 89.843C85.5815 88.4783 83.5641 86.6687 82.1995 84.414C80.8348 82.1 80.1525 79.5487 80.1525 76.76C80.1525 73.6153 80.9535 70.9453 82.5555 68.75C84.1575 66.5547 86.5901 64.8933 89.8535 63.766C93.1761 62.6387 97.3591 62.075 102.402 62.075H112.548V71.776H105.606C103.47 71.776 101.898 72.132 100.889 72.844C99.9401 73.4967 99.4655 74.5053 99.4655 75.87C99.4655 76.9973 99.8808 77.9467 100.711 78.718C101.601 79.43 102.788 79.786 104.271 79.786C105.636 79.786 106.882 79.43 108.009 78.718C109.196 77.9467 110.056 76.76 110.59 75.158L113.171 81.121C112.4 84.7403 110.768 87.44 108.276 89.22C105.784 91 102.432 91.89 98.2195 91.89ZM152.323 91L132.743 42.317H153.391L168.254 81.833H157.841L173.683 42.317H192.729L173.149 91H152.323ZM223.525 91V82.367L222.101 80.053V63.677C222.101 61.3037 221.36 59.494 219.876 58.248C218.452 57.002 216.109 56.379 212.845 56.379C210.65 56.379 208.425 56.735 206.17 57.447C203.916 58.0997 201.987 59.0193 200.385 60.206L193.977 46.945C196.825 45.165 200.237 43.8003 204.212 42.851C208.188 41.9017 212.074 41.427 215.871 41.427C224.237 41.427 230.705 43.296 235.273 47.034C239.901 50.772 242.215 56.7053 242.215 64.834V91H223.525ZM209.73 91.89C205.755 91.89 202.432 91.2077 199.762 89.843C197.092 88.4783 195.075 86.6687 193.71 84.414C192.346 82.1 191.663 79.5487 191.663 76.76C191.663 73.6153 192.464 70.9453 194.066 68.75C195.668 66.5547 198.101 64.8933 201.364 63.766C204.687 62.6387 208.87 62.075 213.913 62.075H224.059V71.776H217.117C214.981 71.776 213.409 72.132 212.4 72.844C211.451 73.4967 210.976 74.5053 210.976 75.87C210.976 76.9973 211.392 77.9467 212.222 78.718C213.112 79.43 214.299 79.786 215.782 79.786C217.147 79.786 218.393 79.43 219.52 78.718C220.707 77.9467 221.567 76.76 222.101 75.158L224.682 81.121C223.911 84.7403 222.279 87.44 219.787 89.22C217.295 91 213.943 91.89 209.73 91.89ZM274.76 92.424C269.539 92.424 264.495 91.8307 259.63 90.644C254.765 89.4573 250.76 87.9147 247.615 86.016L254.379 70.708C257.346 72.4287 260.639 73.823 264.258 74.891C267.937 75.8997 271.497 76.404 274.938 76.404C276.955 76.404 278.528 76.2853 279.655 76.048C280.842 75.7513 281.702 75.3657 282.236 74.891C282.77 74.357 283.037 73.734 283.037 73.022C283.037 71.8947 282.414 71.0047 281.168 70.352C279.922 69.6993 278.261 69.1653 276.184 68.75C274.167 68.2753 271.942 67.8007 269.509 67.326C267.076 66.792 264.614 66.1097 262.122 65.279C259.689 64.4483 257.435 63.3507 255.358 61.986C253.341 60.6213 251.709 58.8413 250.463 56.646C249.217 54.3913 248.594 51.6027 248.594 48.28C248.594 44.4233 249.662 40.9227 251.798 37.778C253.993 34.574 257.227 32.0227 261.499 30.124C265.83 28.2253 271.2 27.276 277.608 27.276C281.821 27.276 285.974 27.721 290.068 28.611C294.162 29.501 297.841 30.8657 301.104 32.705L294.785 47.924C291.7 46.3813 288.703 45.2243 285.796 44.453C282.948 43.6817 280.159 43.296 277.43 43.296C275.413 43.296 273.811 43.474 272.624 43.83C271.437 44.186 270.577 44.6607 270.043 45.254C269.568 45.8473 269.331 46.5 269.331 47.212C269.331 48.28 269.954 49.1403 271.2 49.793C272.446 50.3863 274.078 50.8907 276.095 51.306C278.172 51.7213 280.426 52.1663 282.859 52.641C285.351 53.1157 287.813 53.7683 290.246 54.599C292.679 55.4297 294.904 56.5273 296.921 57.892C298.998 59.2567 300.659 61.0367 301.905 63.232C303.151 65.4273 303.774 68.1567 303.774 71.42C303.774 75.2173 302.676 78.718 300.481 81.922C298.345 85.0667 295.141 87.618 290.869 89.576C286.597 91.4747 281.227 92.424 274.76 92.424ZM335.567 91.89C329.99 91.89 325.036 90.822 320.704 88.686C316.373 86.55 312.961 83.5833 310.469 79.786C308.037 75.9293 306.82 71.5387 306.82 66.614C306.82 61.6893 308.037 57.3283 310.469 53.531C312.961 49.7337 316.373 46.767 320.704 44.631C325.036 42.495 329.99 41.427 335.567 41.427C341.501 41.427 346.574 42.7027 350.786 45.254C354.999 47.8053 357.906 51.3357 359.508 55.845L343.933 63.499C342.925 61.2443 341.679 59.6127 340.195 58.604C338.771 57.5953 337.199 57.091 335.478 57.091C333.995 57.091 332.601 57.447 331.295 58.159C330.049 58.871 329.041 59.939 328.269 61.363C327.557 62.7277 327.201 64.478 327.201 66.614C327.201 68.75 327.557 70.53 328.269 71.954C329.041 73.378 330.049 74.446 331.295 75.158C332.601 75.87 333.995 76.226 335.478 76.226C337.199 76.226 338.771 75.7217 340.195 74.713C341.679 73.7043 342.925 72.0727 343.933 69.818L359.508 77.472C357.906 81.9813 354.999 85.5117 350.786 88.063C346.574 90.6143 341.501 91.89 335.567 91.89ZM364.157 91V42.317H383.292V57.002L380.177 52.819C381.66 49.0217 384.034 46.1737 387.297 44.275C390.56 42.3763 394.476 41.427 399.045 41.427V59.227C398.155 59.1083 397.354 59.0193 396.642 58.96C395.989 58.9007 395.307 58.871 394.595 58.871C391.569 58.871 389.077 59.672 387.119 61.274C385.22 62.8167 384.271 65.5163 384.271 69.373V91H364.157ZM404.746 91V42.317H424.86V91H404.746ZM414.803 38.401C411.124 38.401 408.187 37.422 405.992 35.464C403.797 33.506 402.699 31.0733 402.699 28.166C402.699 25.2587 403.797 22.826 405.992 20.868C408.187 18.91 411.124 17.931 414.803 17.931C418.482 17.931 421.419 18.8507 423.614 20.69C425.809 22.5293 426.907 24.9027 426.907 27.81C426.907 30.8953 425.809 33.4467 423.614 35.464C421.419 37.422 418.482 38.401 414.803 38.401ZM466.26 91.89C462.048 91.89 458.547 91 455.758 89.22C453.029 87.3807 451.012 84.6217 449.706 80.943C448.401 77.205 447.748 72.4583 447.748 66.703C447.748 60.829 448.342 56.0527 449.528 52.374C450.774 48.636 452.762 45.877 455.491 44.097C458.221 42.317 461.81 41.427 466.26 41.427C470.532 41.427 474.448 42.4653 478.008 44.542C481.568 46.5593 484.416 49.4667 486.552 53.264C488.688 57.002 489.756 61.4817 489.756 66.703C489.756 71.9243 488.688 76.4337 486.552 80.231C484.416 83.969 481.568 86.8467 478.008 88.864C474.448 90.8813 470.532 91.89 466.26 91.89ZM433.775 108.266V42.317H452.91V48.903L452.999 66.703L453.889 84.503V108.266H433.775ZM461.454 76.226C462.938 76.226 464.273 75.87 465.459 75.158C466.646 74.446 467.595 73.378 468.307 71.954C469.019 70.53 469.375 68.7797 469.375 66.703C469.375 64.567 469.019 62.787 468.307 61.363C467.595 59.939 466.646 58.871 465.459 58.159C464.273 57.447 462.938 57.091 461.454 57.091C459.971 57.091 458.636 57.447 457.449 58.159C456.263 58.871 455.313 59.939 454.601 61.363C453.889 62.787 453.533 64.567 453.533 66.703C453.533 68.7797 453.889 70.53 454.601 71.954C455.313 73.378 456.263 74.446 457.449 75.158C458.636 75.87 459.971 76.226 461.454 76.226ZM519.589 91.89C512.884 91.89 507.663 90.288 503.925 87.084C500.187 83.8207 498.318 78.8367 498.318 72.132V31.37H518.432V71.954C518.432 73.4373 518.817 74.5943 519.589 75.425C520.419 76.2557 521.428 76.671 522.615 76.671C524.335 76.671 525.848 76.226 527.154 75.336L531.96 89.309C530.417 90.199 528.548 90.8517 526.353 91.267C524.217 91.6823 521.962 91.89 519.589 91.89ZM491.643 59.672V44.987H528.4V59.672H491.643Z" fill="#211F1D"/>
</g>
<path d="M721.283 297.534H162.648C161.213 297.534 160.137 296.458 160.137 295.023V288.088C160.137 286.653 161.213 285.577 162.648 285.577H721.283C722.717 285.577 723.794 286.653 723.794 288.088V295.023C723.794 296.458 722.717 297.534 721.283 297.534Z" fill="#211F1D"/>
<path d="M269.305 297.533H256.511V447.053L269.305 446.016V297.533Z" fill="#211F1D"/>
<path d="M619.288 297.533H606.494L606.096 480.029L615.425 483.125L619.288 297.533Z" fill="#211F1D"/>
<path d="M520.246 265.966H342.325C340.172 265.966 338.379 264.172 338.379 262.02V158.83C338.379 156.678 340.172 154.885 342.325 154.885H520.366C522.518 154.885 524.312 156.678 524.312 158.83V262.02C524.312 264.172 522.518 265.966 520.246 265.966Z" fill="#FAFAFA"/>
<path d="M452.334 280.435C451.617 278.641 451.378 276.728 451.378 274.815V265.967H431.409H430.453H412.517V274.815C412.517 276.728 412.278 278.641 411.561 280.435C410.604 282.946 408.81 285.696 405.582 285.696H430.453H431.409H458.313C455.084 285.576 453.291 282.826 452.334 280.435Z" fill="#9B9B9B"/>
<path d="M520.246 248.27H342.325C340.172 248.27 338.379 246.477 338.379 244.325V141.135C338.379 138.983 340.172 137.189 342.325 137.189H520.366C522.518 137.189 524.312 138.983 524.312 141.135V244.205C524.312 246.477 522.518 248.27 520.246 248.27Z" fill="black"/>
<path d="M517.378 143.166H345.555V240.855H517.378V143.166Z" fill="#FAFAFA"/>
<path d="M353.842 222.802C353.962 222.921 354.201 222.802 354.32 222.682L357.549 219.454L359.94 224.117C360.06 224.237 360.179 224.356 360.299 224.356C360.418 224.356 360.419 224.356 360.538 224.356L362.451 223.28C362.571 223.28 362.69 223.161 362.69 223.041C362.69 222.921 362.69 222.802 362.69 222.682L360.419 218.378H364.723C364.962 218.378 365.082 218.258 365.201 218.019C365.321 217.78 365.201 217.66 365.082 217.541L354.201 207.616C354.081 207.497 353.842 207.497 353.723 207.497C353.603 207.616 353.483 207.736 353.483 207.975V222.443C353.483 222.563 353.603 222.682 353.842 222.802Z" fill="black"/>
<path d="M465.119 280.317L366.832 286.654C358.342 287.252 351.049 280.795 350.57 272.306C349.973 263.816 356.429 256.522 364.919 256.044L463.206 249.707C468.348 249.348 472.772 253.294 473.13 258.435L473.848 270.392C474.207 275.534 470.38 279.958 465.119 280.317Z" fill="#FBC39D"/>
<path d="M402.465 221.965L353.8 256.162C347.343 260.706 345.669 269.554 349.973 276.131C353.202 281.153 359.3 283.664 365.159 282.468C386.562 278.163 435.825 268.12 435.347 266.446C434.988 265.13 429.488 245.64 425.064 229.976C422.194 220.291 410.715 216.106 402.465 221.965Z" fill="#1487E3"/>
<path d="M435.469 280.317L533.756 286.654C542.245 287.252 549.539 280.795 550.017 272.306C550.615 263.816 544.158 256.522 535.669 256.044L437.382 249.707C432.24 249.348 427.816 253.294 427.457 258.435L426.74 270.392C426.381 275.534 430.327 279.958 435.469 280.317Z" fill="#FBC39D"/>
<path d="M498.243 221.965L546.909 256.162C553.365 260.706 555.039 269.554 550.735 276.131C547.507 281.153 541.408 283.664 535.549 282.468C514.146 278.163 464.883 268.12 465.361 266.446C465.72 265.13 471.22 245.64 475.644 229.976C478.395 220.291 489.873 216.106 498.243 221.965Z" fill="#1487E3"/>
<path d="M412.271 159.192C407.01 159.192 402.706 163.616 402.706 169.116C402.706 174.617 407.01 179.041 412.271 179.041C417.533 179.041 421.837 174.617 421.837 169.116C421.718 163.616 417.533 159.192 412.271 159.192Z" fill="#F9AC7F"/>
<path d="M484.253 159.192C478.992 159.192 474.688 163.616 474.688 169.116C474.688 174.617 478.992 179.041 484.253 179.041C489.514 179.041 493.819 174.617 493.819 169.116C493.699 163.616 489.514 159.192 484.253 159.192Z" fill="#F9AC7F"/>
<path d="M445.275 222.086C446.232 222.205 447.188 222.325 448.265 222.325C451.254 222.325 454.243 221.966 457.113 221.249C457.113 221.249 457.113 221.249 457.113 221.129C472.657 217.064 484.255 202.357 484.255 184.899V141.136C484.255 120.451 468.113 123.799 448.384 123.799C428.535 123.799 412.513 120.57 412.513 141.136V184.899C412.274 204.509 426.742 220.531 445.275 222.086Z" fill="#FBC39D"/>
<path d="M476.84 170.55V182.388H464.046C464.046 182.388 460.937 173.898 448.143 173.898C435.349 173.898 432.24 182.388 432.24 182.388H419.446V170.55C419.446 165.887 415.141 164.332 412.152 163.854V184.899C412.152 204.508 426.62 220.531 445.154 222.085L445.034 222.205C445.991 222.324 447.067 222.324 448.023 222.324C448.98 222.324 450.056 222.324 451.013 222.205L450.893 222.085C469.307 220.531 483.895 204.508 483.895 184.899V163.854C481.144 164.332 476.84 165.887 476.84 170.55Z" fill="#211F1D"/>
<path d="M474.568 109.45C464.763 108.015 449.458 107.895 438.219 117.102C437.979 117.341 437.74 117.58 437.501 117.82H428.653C419.565 117.82 412.152 124.276 412.152 132.168V140.299V158.952V181.67C413.826 181.67 415.141 180.236 415.141 178.562V146.636C415.141 146.636 415.739 136.473 424.946 136.473H445.871H446.11H469.905C479.71 136.473 480.905 145.321 481.025 146.517V178.442C481.025 180.236 482.34 181.551 484.014 181.551V158.832V140.179V132.885L484.134 120.45C484.253 114.95 480.188 110.167 474.568 109.45Z" fill="#211F1D"/>
<path d="M483.655 131.091H414.185V191.235H483.655V131.091Z" fill="#211F1D"/>
<path d="M467.751 410.051H428.532C401.15 410.051 378.91 386.017 378.91 356.483L391.345 249.228C395.65 220.651 422.075 202.237 448.978 202.237C476.121 202.237 502.785 221.009 506.731 250.065L517.612 356.483C517.373 386.017 495.133 410.051 467.751 410.051Z" fill="#F16A51"/>
<path d="M457.643 455.648L442.532 450.946L435.824 449.065V295.193C435.824 293.039 437.259 291.316 439.053 291.316H457.467C459.26 291.316 460.695 293.039 460.695 295.193L460.454 456.589L457.643 455.648Z" fill="#211F1D"/>
<path d="M463.686 304.589H431.761C428.293 304.589 425.543 301.839 425.543 298.372V284.262C425.543 280.795 428.293 278.045 431.761 278.045H463.686C467.154 278.045 469.904 280.795 469.904 284.262V298.372C470.024 301.839 467.154 304.589 463.686 304.589Z" fill="#211F1D"/>
<path d="M721.283 297.534H162.648C161.213 297.534 160.137 296.458 160.137 295.023V288.088C160.137 286.653 161.213 285.577 162.648 285.577H721.283C722.717 285.577 723.794 286.653 723.794 288.088V295.023C723.794 296.458 722.717 297.534 721.283 297.534Z" fill="#211F1D"/>
<path d="M269.305 297.533H256.511V447.053L269.305 446.016V297.533Z" fill="#211F1D"/>
<path d="M619.288 297.533H606.494L606.096 480.029L615.425 483.125L619.288 297.533Z" fill="#211F1D"/>
<path d="M520.246 265.966H342.325C340.172 265.966 338.379 264.172 338.379 262.02V158.83C338.379 156.678 340.172 154.885 342.325 154.885H520.366C522.518 154.885 524.312 156.678 524.312 158.83V262.02C524.312 264.172 522.518 265.966 520.246 265.966Z" fill="#FAFAFA"/>
<path d="M452.334 280.435C451.617 278.641 451.378 276.728 451.378 274.815V265.967H431.409H430.453H412.517V274.815C412.517 276.728 412.278 278.641 411.561 280.435C410.604 282.946 408.81 285.696 405.582 285.696H430.453H431.409H458.313C455.084 285.576 453.291 282.826 452.334 280.435Z" fill="#9B9B9B"/>
<path d="M520.246 248.27H342.325C340.172 248.27 338.379 246.477 338.379 244.325V141.135C338.379 138.983 340.172 137.189 342.325 137.189H520.366C522.518 137.189 524.312 138.983 524.312 141.135V244.205C524.312 246.477 522.518 248.27 520.246 248.27Z" fill="black"/>
<path d="M517.378 143.166H345.555V240.855H517.378V143.166Z" fill="#FAFAFA"/>
<path d="M353.842 222.802C353.962 222.921 354.201 222.802 354.32 222.682L357.549 219.454L359.94 224.117C360.06 224.237 360.179 224.356 360.299 224.356C360.418 224.356 360.419 224.356 360.538 224.356L362.451 223.28C362.571 223.28 362.69 223.161 362.69 223.041C362.69 222.921 362.69 222.802 362.69 222.682L360.419 218.378H364.723C364.962 218.378 365.082 218.258 365.201 218.019C365.321 217.78 365.201 217.66 365.082 217.541L354.201 207.616C354.081 207.497 353.842 207.497 353.723 207.497C353.603 207.616 353.483 207.736 353.483 207.975V222.443C353.483 222.563 353.603 222.682 353.842 222.802Z" fill="black"/>
<path d="M465.119 280.317L366.832 286.654C358.342 287.252 351.049 280.795 350.57 272.306C349.973 263.816 356.429 256.522 364.919 256.044L463.206 249.707C468.348 249.348 472.772 253.294 473.13 258.435L473.848 270.392C474.207 275.534 470.38 279.958 465.119 280.317Z" fill="#FBC39D"/>
<path d="M402.465 221.965L353.8 256.162C347.343 260.706 345.669 269.554 349.973 276.131C353.202 281.153 359.3 283.664 365.159 282.468C386.562 278.163 435.825 268.12 435.347 266.446C434.988 265.13 429.488 245.64 425.064 229.976C422.194 220.291 410.715 216.106 402.465 221.965Z" fill="#1487E3"/>
<path d="M435.469 280.317L533.756 286.654C542.245 287.252 549.539 280.795 550.017 272.306C550.615 263.816 544.158 256.522 535.669 256.044L437.382 249.707C432.24 249.348 427.816 253.294 427.457 258.435L426.74 270.392C426.381 275.534 430.327 279.958 435.469 280.317Z" fill="#FBC39D"/>
<path d="M498.243 221.965L546.909 256.162C553.365 260.706 555.039 269.554 550.735 276.131C547.507 281.153 541.408 283.664 535.549 282.468C514.146 278.163 464.883 268.12 465.361 266.446C465.72 265.13 471.22 245.64 475.644 229.976C478.395 220.291 489.873 216.106 498.243 221.965Z" fill="#1487E3"/>
<path d="M412.271 159.192C407.01 159.192 402.706 163.616 402.706 169.116C402.706 174.617 407.01 179.041 412.271 179.041C417.533 179.041 421.837 174.617 421.837 169.116C421.718 163.616 417.533 159.192 412.271 159.192Z" fill="#F9AC7F"/>
<path d="M484.253 159.192C478.992 159.192 474.688 163.616 474.688 169.116C474.688 174.617 478.992 179.041 484.253 179.041C489.514 179.041 493.819 174.617 493.819 169.116C493.699 163.616 489.514 159.192 484.253 159.192Z" fill="#F9AC7F"/>
<path d="M445.275 222.086C446.232 222.205 447.188 222.325 448.265 222.325C451.254 222.325 454.243 221.966 457.113 221.249C457.113 221.249 457.113 221.249 457.113 221.129C472.657 217.064 484.255 202.357 484.255 184.899V141.136C484.255 120.451 468.113 123.799 448.384 123.799C428.535 123.799 412.513 120.57 412.513 141.136V184.899C412.274 204.509 426.742 220.531 445.275 222.086Z" fill="#FBC39D"/>
<path d="M476.84 170.55V182.388H464.046C464.046 182.388 460.937 173.898 448.143 173.898C435.349 173.898 432.24 182.388 432.24 182.388H419.446V170.55C419.446 165.887 415.141 164.332 412.152 163.854V184.899C412.152 204.508 426.62 220.531 445.154 222.085L445.034 222.205C445.991 222.324 447.067 222.324 448.023 222.324C448.98 222.324 450.056 222.324 451.013 222.205L450.893 222.085C469.307 220.531 483.895 204.508 483.895 184.899V163.854C481.144 164.332 476.84 165.887 476.84 170.55Z" fill="#211F1D"/>
<path d="M474.568 109.45C464.763 108.015 449.458 107.895 438.219 117.102C437.979 117.341 437.74 117.58 437.501 117.82H428.653C419.565 117.82 412.152 124.276 412.152 132.168V140.299V158.952V181.67C413.826 181.67 415.141 180.236 415.141 178.562V146.636C415.141 146.636 415.739 136.473 424.946 136.473H445.871H446.11H469.905C479.71 136.473 480.905 145.321 481.025 146.517V178.442C481.025 180.236 482.34 181.551 484.014 181.551V158.832V140.179V132.885L484.134 120.45C484.253 114.95 480.188 110.167 474.568 109.45Z" fill="#211F1D"/>
<path d="M483.655 131.091H414.185V191.235H483.655V131.091Z" fill="#211F1D"/>
<path d="M467.751 410.051H428.532C401.15 410.051 378.91 386.017 378.91 356.483L391.345 249.228C395.65 220.651 422.075 202.237 448.978 202.237C476.121 202.237 502.785 221.009 506.731 250.065L517.612 356.483C517.373 386.017 495.133 410.051 467.751 410.051Z" fill="#F16A51"/>
<path d="M457.643 455.648L442.532 450.946L435.824 449.065V295.193C435.824 293.039 437.259 291.316 439.053 291.316H457.467C459.26 291.316 460.695 293.039 460.695 295.193L460.454 456.589L457.643 455.648Z" fill="#211F1D"/>
<path d="M463.686 304.589H431.761C428.293 304.589 425.543 301.839 425.543 298.372V284.262C425.543 280.795 428.293 278.045 431.761 278.045H463.686C467.154 278.045 469.904 280.795 469.904 284.262V298.372C470.024 301.839 467.154 304.589 463.686 304.589Z" fill="#211F1D"/>
<path d="M252.034 220.147C252.034 238.795 240.948 245.306 227.273 245.306C213.598 245.306 202.512 238.795 202.512 220.147C202.512 201.499 227.273 177.775 227.273 177.775C227.273 177.775 252.034 201.499 252.034 220.147Z" fill="#F16A51"/>
<path d="M226.627 226.847L237.181 207.54L226.667 224.399L226.781 217.382L234.054 203.412L226.811 215.524L227.016 202.903L234.805 191.782L227.048 200.919L227.176 177.776L226.406 207.1L218.518 195.028L226.31 209.575L225.573 223.67L225.551 223.296L216.421 210.541L225.523 224.618L225.431 226.381L225.414 226.407L225.422 226.552L223.55 245.362H226.051L226.351 243.843L235.43 229.799L226.373 242.454L226.627 226.847Z" fill="#3F3D56"/>
<path d="M243.09 285.762H213.57L205.941 242.642H249.06L243.09 285.762Z" fill="#2F2E41"/>
</g>
<defs>
<clipPath id="clip0_1495_2206">
<rect width="648" height="427" fill="white"/>
</clipPath>
<clipPath id="clip1_1495_2206">
<rect width="648" height="427" fill="white"/>
</clipPath>
</defs>
</svg>
